<?xml version="1.0" encoding="utf-8"?>
<!-- Generator: Adobe Illustrator 25.2.0, SVG Export Plug-In . SVG Version: 6.00 Build 0)  -->
<svg version="1.1" id="Calque_1" xmlns="http://www.w3.org/2000/svg" xmlns:xlink="http://www.w3.org/1999/xlink" x="0px" y="0px"
	 viewBox="0 0 80 59" style="enable-background:new 0 0 80 59;" xml:space="preserve">
<style type="text/css">
	.st0{fill:#22B573;}
	.st1{fill:#FF4A4F;}
	.st2{fill:#F7931E;}
	.st3{fill:#6A58FF;}
</style>
<g>
	<path class="st0" d="M24,45c0,2.76,2.24,5,5,5h4c2.76,0,5-2.24,5-5V23c0-2.76-2.24-5-5-5h-4c-2.76,0-5,2.24-5,5V45z"/>
</g>
<g>
	<path class="st0" d="M59,34c0,2.76,2.24,5,5,5h11c2.76,0,5-2.24,5-5V10c0-2.76-2.24-5-5-5H64c-2.76,0-5,2.24-5,5V34z"/>
</g>
<g>
	<path class="st1" d="M26,10c0,2.76,2.24,5,5,5h19c2.76,0,5-2.24,5-5V5c0-2.76-2.24-5-5-5H31c-2.76,0-5,2.24-5,5V10z"/>
</g>
<g>
	<path class="st2" d="M41,54c0,2.76,2.24,5,5,5h20c2.76,0,5-2.24,5-5v-8c0-2.76-2.24-5-5-5H46c-2.76,0-5,2.24-5,5V54z"/>
</g>
<g>
	<path class="st3" d="M40,32c0,2.76,2.24,5,5,5h6c2.76,0,5-2.24,5-5v-6c0-2.76-2.24-5-5-5h-6c-2.76,0-5,2.24-5,5V32z"/>
</g>
<g>
	<path class="st2" d="M0,30c0,2.76,2.24,5,5,5h11c2.76,0,5-2.24,5-5V17c0-2.76-2.24-5-5-5H5c-2.76,0-5,2.24-5,5V30z"/>
</g>
<g>
	<path class="st3" d="M6,49c0,2.76,2.24,5,5,5h6c2.76,0,5-2.24,5-5v-6c0-2.76-2.24-5-5-5h-6c-2.76,0-5,2.24-5,5V49z"/>
</g>
</svg>
